<svg width="114" height="18" viewBox="0 0 114 18" fill="none" xmlns="http://www.w3.org/2000/svg">
<path d="M0.75 -1.19209e-06H5.25V13.8H12.75V17.5H0.75V-1.19209e-06ZM20.0078 17.825C19.0411 17.825 18.1328 17.6917 17.2828 17.425C16.4495 17.1417 15.7245 16.7167 15.1078 16.15C14.4911 15.5833 14.0078 14.875 13.6578 14.025C13.3078 13.1583 13.1328 12.15 13.1328 11V10.5C13.1328 9.4 13.2995 8.44167 13.6328 7.625C13.9828 6.80833 14.4495 6.125 15.0328 5.575C15.6328 5.025 16.3328 4.61667 17.1328 4.35C17.9495 4.06667 18.8245 3.925 19.7578 3.925C21.9411 3.925 23.5911 4.49167 24.7078 5.625C25.8245 6.74167 26.3828 8.36667 26.3828 10.5V11.875H17.0828C17.0995 12.3917 17.1911 12.8333 17.3578 13.2C17.5245 13.55 17.7411 13.8417 18.0078 14.075C18.2745 14.3083 18.5745 14.4833 18.9078 14.6C19.2578 14.7 19.6245 14.75 20.0078 14.75C20.7411 14.75 21.3161 14.6417 21.7328 14.425C22.1661 14.1917 22.4495 13.8833 22.5828 13.5H26.1328C25.8661 14.95 25.2078 16.0333 24.1578 16.75C23.1078 17.4667 21.7245 17.825 20.0078 17.825ZM19.8828 6.975C19.5328 6.975 19.1911 7.01667 18.8578 7.1C18.5411 7.18333 18.2495 7.325 17.9828 7.525C17.7328 7.70833 17.5245 7.95 17.3578 8.25C17.2078 8.55 17.1245 8.91667 17.1078 9.35H22.6078C22.6078 8.88333 22.5328 8.5 22.3828 8.2C22.2328 7.9 22.0328 7.65833 21.7828 7.475C21.5495 7.29167 21.2661 7.16667 20.9328 7.1C20.5995 7.01667 20.2495 6.975 19.8828 6.975ZM31.6289 17.825C30.9122 17.825 30.2706 17.7167 29.7039 17.5C29.1539 17.2833 28.6872 16.9917 28.3039 16.625C27.9206 16.2417 27.6289 15.8 27.4289 15.3C27.2289 14.7833 27.1289 14.225 27.1289 13.625C27.1289 12.3083 27.5289 11.3 28.3289 10.6C29.1456 9.9 30.3706 9.55 32.0039 9.55H35.7789V9C35.7789 8.2 35.5872 7.65 35.2039 7.35C34.8206 7.03333 34.2956 6.875 33.6289 6.875C32.9956 6.875 32.5289 6.975 32.2289 7.175C31.9289 7.375 31.7622 7.69167 31.7289 8.125H27.8789C27.9122 7.525 28.0622 6.975 28.3289 6.475C28.5956 5.95833 28.9706 5.51667 29.4539 5.15C29.9539 4.76667 30.5622 4.46667 31.2789 4.25C31.9956 4.03333 32.8206 3.925 33.7539 3.925C34.6206 3.925 35.4122 4.025 36.1289 4.225C36.8622 4.40833 37.4872 4.71667 38.0039 5.15C38.5206 5.56667 38.9206 6.11667 39.2039 6.8C39.4872 7.46667 39.6289 8.28333 39.6289 9.25V14.125C39.6289 14.825 39.6456 15.4417 39.6789 15.975C39.7122 16.4917 39.7622 17 39.8289 17.5H36.1789C36.1456 17.2167 36.1122 16.9667 36.0789 16.75C36.0622 16.5333 36.0539 16.2667 36.0539 15.95C35.6539 16.4833 35.0956 16.9333 34.3789 17.3C33.6789 17.65 32.7622 17.825 31.6289 17.825ZM32.8789 15.125C33.6956 15.125 34.3789 14.8917 34.9289 14.425C35.4956 13.9583 35.7789 13.3167 35.7789 12.5V11.95H32.7539C32.1872 11.95 31.7622 12.1 31.4789 12.4C31.2122 12.7 31.0789 13.05 31.0789 13.45C31.0789 13.9333 31.2122 14.3333 31.4789 14.65C31.7622 14.9667 32.2289 15.125 32.8789 15.125ZM41.1309 -1.19209e-06H44.9809V9.35L49.2559 4.25H53.6059L48.9559 9.825L54.1309 17.5H49.6809L46.3559 12.5L44.9809 14.1V17.5H41.1309V-1.19209e-06Z" fill="black"/>
<path d="M54.7578 4.25H58.3078V6.05C58.4078 5.83333 58.5578 5.6 58.7578 5.35C58.9745 5.1 59.2245 4.86667 59.5078 4.65C59.7911 4.43333 60.1078 4.25833 60.4578 4.125C60.8245 3.99167 61.2161 3.925 61.6328 3.925C61.9161 3.925 62.1411 3.94167 62.3078 3.975C62.4745 4.00833 62.6245 4.04167 62.7578 4.075V7.4C62.6745 7.35 62.4828 7.29167 62.1828 7.225C61.8828 7.15833 61.5328 7.125 61.1328 7.125C60.2495 7.125 59.6078 7.38333 59.2078 7.9C58.8078 8.41667 58.6078 9.04167 58.6078 9.775V17.5H54.7578V4.25ZM67.3828 17.825C66.6661 17.825 66.0245 17.7167 65.4578 17.5C64.9078 17.2833 64.4411 16.9917 64.0578 16.625C63.6745 16.2417 63.3828 15.8 63.1828 15.3C62.9828 14.7833 62.8828 14.225 62.8828 13.625C62.8828 12.3083 63.2828 11.3 64.0828 10.6C64.8995 9.9 66.1245 9.55 67.7578 9.55H71.5328V9C71.5328 8.2 71.3411 7.65 70.9578 7.35C70.5745 7.03333 70.0495 6.875 69.3828 6.875C68.7495 6.875 68.2828 6.975 67.9828 7.175C67.6828 7.375 67.5161 7.69167 67.4828 8.125H63.6328C63.6661 7.525 63.8161 6.975 64.0828 6.475C64.3495 5.95833 64.7245 5.51667 65.2078 5.15C65.7078 4.76667 66.3161 4.46667 67.0328 4.25C67.7495 4.03333 68.5745 3.925 69.5078 3.925C70.3745 3.925 71.1661 4.025 71.8828 4.225C72.6161 4.40833 73.2411 4.71667 73.7578 5.15C74.2745 5.56667 74.6745 6.11667 74.9578 6.8C75.2411 7.46667 75.3828 8.28333 75.3828 9.25V14.125C75.3828 14.825 75.3995 15.4417 75.4328 15.975C75.4661 16.4917 75.5161 17 75.5828 17.5H71.9328C71.8995 17.2167 71.8661 16.9667 71.8328 16.75C71.8161 16.5333 71.8078 16.2667 71.8078 15.95C71.4078 16.4833 70.8495 16.9333 70.1328 17.3C69.4328 17.65 68.5161 17.825 67.3828 17.825ZM68.6328 15.125C69.4495 15.125 70.1328 14.8917 70.6828 14.425C71.2495 13.9583 71.5328 13.3167 71.5328 12.5V11.95H68.5078C67.9411 11.95 67.5161 12.1 67.2328 12.4C66.9661 12.7 66.8328 13.05 66.8328 13.45C66.8328 13.9333 66.9661 14.3333 67.2328 14.65C67.5161 14.9667 67.9828 15.125 68.6328 15.125ZM82.0848 17.825C81.2181 17.825 80.4348 17.6833 79.7348 17.4C79.0348 17.1 78.4348 16.6667 77.9348 16.1C77.4348 15.5333 77.0514 14.825 76.7848 13.975C76.5181 13.125 76.3848 12.1333 76.3848 11V10.5C76.3848 8.36667 76.8764 6.74167 77.8598 5.625C78.8598 4.49167 80.2681 3.925 82.0848 3.925C82.8348 3.925 83.5431 4.1 84.2098 4.45C84.8931 4.78333 85.4598 5.275 85.9098 5.925V-1.19209e-06H89.7598V17.5H86.2098V15.7C86.0431 15.9667 85.8264 16.2333 85.5598 16.5C85.3098 16.75 85.0098 16.975 84.6598 17.175C84.3098 17.375 83.9181 17.5333 83.4848 17.65C83.0514 17.7667 82.5848 17.825 82.0848 17.825ZM83.0098 14.65C83.8264 14.65 84.5098 14.3667 85.0598 13.8C85.6264 13.2333 85.9098 12.425 85.9098 11.375V10.125C85.9098 9.125 85.6264 8.375 85.0598 7.875C84.5098 7.35833 83.8264 7.1 83.0098 7.1C82.2098 7.1 81.5598 7.38333 81.0598 7.95C80.5764 8.5 80.3348 9.35 80.3348 10.5V11C80.3348 12.2 80.5848 13.1083 81.0848 13.725C81.6014 14.3417 82.2431 14.65 83.0098 14.65ZM95.5156 17.825C94.799 17.825 94.1573 17.7167 93.5906 17.5C93.0406 17.2833 92.574 16.9917 92.1906 16.625C91.8073 16.2417 91.5156 15.8 91.3156 15.3C91.1156 14.7833 91.0156 14.225 91.0156 13.625C91.0156 12.3083 91.4156 11.3 92.2156 10.6C93.0323 9.9 94.2573 9.55 95.8906 9.55H99.6656V9C99.6656 8.2 99.474 7.65 99.0906 7.35C98.7073 7.03333 98.1823 6.875 97.5156 6.875C96.8823 6.875 96.4156 6.975 96.1156 7.175C95.8156 7.375 95.649 7.69167 95.6156 8.125H91.7656C91.799 7.525 91.949 6.975 92.2156 6.475C92.4823 5.95833 92.8573 5.51667 93.3406 5.15C93.8406 4.76667 94.449 4.46667 95.1656 4.25C95.8823 4.03333 96.7073 3.925 97.6406 3.925C98.5073 3.925 99.299 4.025 100.016 4.225C100.749 4.40833 101.374 4.71667 101.891 5.15C102.407 5.56667 102.807 6.11667 103.091 6.8C103.374 7.46667 103.516 8.28333 103.516 9.25V14.125C103.516 14.825 103.532 15.4417 103.566 15.975C103.599 16.4917 103.649 17 103.716 17.5H100.066C100.032 17.2167 99.999 16.9667 99.9656 16.75C99.949 16.5333 99.9406 16.2667 99.9406 15.95C99.5406 16.4833 98.9823 16.9333 98.2656 17.3C97.5656 17.65 96.649 17.825 95.5156 17.825ZM96.7656 15.125C97.5823 15.125 98.2656 14.8917 98.8156 14.425C99.3823 13.9583 99.6656 13.3167 99.6656 12.5V11.95H96.6406C96.074 11.95 95.649 12.1 95.3656 12.4C95.099 12.7 94.9656 13.05 94.9656 13.45C94.9656 13.9333 95.099 14.3333 95.3656 14.65C95.649 14.9667 96.1156 15.125 96.7656 15.125ZM105.018 4.25H108.568V6.05C108.668 5.83333 108.818 5.6 109.018 5.35C109.234 5.1 109.484 4.86667 109.768 4.65C110.051 4.43333 110.368 4.25833 110.718 4.125C111.084 3.99167 111.476 3.925 111.893 3.925C112.176 3.925 112.401 3.94167 112.568 3.975C112.734 4.00833 112.884 4.04167 113.018 4.075V7.4C112.934 7.35 112.743 7.29167 112.443 7.225C112.143 7.15833 111.793 7.125 111.393 7.125C110.509 7.125 109.868 7.38333 109.468 7.9C109.068 8.41667 108.868 9.04167 108.868 9.775V17.5H105.018V4.25Z" fill="#6B6B6B"/>
</svg>
