<svg width="40" height="27" viewBox="0 0 40 27" fill="none" xmlns="http://www.w3.org/2000/svg">
<path d="M1.15651 0.434937H4.13038V9.55482H9.08683V12H1.15651V0.434937ZM13.8832 12.2148C13.2444 12.2148 12.6441 12.1267 12.0824 11.9504C11.5317 11.7632 11.0526 11.4823 10.645 11.1078C10.2375 10.7334 9.91807 10.2652 9.68677 9.70351C9.45547 9.13076 9.33982 8.4644 9.33982 7.70441V7.37398C9.33982 6.64703 9.44996 6.0137 9.67025 5.474C9.90155 4.9343 10.21 4.48271 10.5955 4.11924C10.992 3.75576 11.4546 3.48591 11.9833 3.30968C12.523 3.12244 13.1012 3.02882 13.718 3.02882C15.1609 3.02882 16.2513 3.4033 16.9893 4.15228C17.7272 4.89024 18.0962 5.96414 18.0962 7.37398V8.28266H11.9502C11.9612 8.6241 12.0218 8.91598 12.132 9.1583C12.2421 9.3896 12.3853 9.58235 12.5615 9.73655C12.7377 9.89075 12.936 10.0064 13.1563 10.0835C13.3876 10.1496 13.6299 10.1826 13.8832 10.1826C14.3679 10.1826 14.7479 10.111 15.0232 9.96785C15.3096 9.81365 15.4968 9.60989 15.585 9.35656H17.931C17.7548 10.3148 17.3197 11.0307 16.6258 11.5044C15.9319 11.978 15.0177 12.2148 13.8832 12.2148ZM13.8006 5.04444C13.5693 5.04444 13.3435 5.07198 13.1232 5.12705C12.914 5.18212 12.7212 5.27574 12.545 5.40791C12.3798 5.52907 12.2421 5.68878 12.132 5.88704C12.0328 6.0853 11.9778 6.32761 11.9667 6.61399H15.6015C15.6015 6.30558 15.5519 6.05225 15.4528 5.854C15.3537 5.65574 15.2215 5.49603 15.0563 5.37487C14.9021 5.25371 14.7148 5.17111 14.4945 5.12705C14.2742 5.07198 14.0429 5.04444 13.8006 5.04444ZM21.5632 12.2148C21.0895 12.2148 20.6655 12.1432 20.291 12C19.9275 11.8568 19.6191 11.6641 19.3658 11.4217C19.1125 11.1684 18.9197 10.8765 18.7875 10.5461C18.6554 10.2047 18.5893 9.83568 18.5893 9.43916C18.5893 8.56903 18.8536 7.90266 19.3823 7.44006C19.922 6.97746 20.7316 6.74616 21.811 6.74616H24.3057V6.38268C24.3057 5.854 24.1791 5.49052 23.9257 5.29226C23.6724 5.08299 23.3255 4.97836 22.8849 4.97836C22.4663 4.97836 22.1579 5.04444 21.9597 5.17661C21.7614 5.30879 21.6513 5.51806 21.6292 5.80443H19.0849C19.107 5.40791 19.2061 5.04444 19.3823 4.71401C19.5585 4.37257 19.8064 4.08069 20.1258 3.83837C20.4562 3.58504 20.8582 3.38678 21.3319 3.2436C21.8055 3.10041 22.3507 3.02882 22.9675 3.02882C23.5402 3.02882 24.0634 3.0949 24.537 3.22707C25.0217 3.34823 25.4347 3.552 25.7761 3.83837C26.1176 4.11373 26.3819 4.4772 26.5692 4.92879C26.7564 5.36936 26.85 5.90907 26.85 6.5479V9.7696C26.85 10.2322 26.8611 10.6397 26.8831 10.9922C26.9051 11.3336 26.9382 11.6696 26.9822 12H24.5701C24.548 11.8128 24.526 11.6475 24.504 11.5044C24.493 11.3612 24.4875 11.1849 24.4875 10.9757C24.2231 11.3281 23.8541 11.6255 23.3805 11.8678C22.9179 12.0991 22.3121 12.2148 21.5632 12.2148ZM22.3892 10.4305C22.9289 10.4305 23.3805 10.2763 23.744 9.96785C24.1185 9.65945 24.3057 9.2354 24.3057 8.6957V8.33222H22.3066C21.9321 8.33222 21.6513 8.43135 21.464 8.62961C21.2878 8.82787 21.1997 9.05917 21.1997 9.32351C21.1997 9.64293 21.2878 9.90727 21.464 10.1165C21.6513 10.3258 21.9597 10.4305 22.3892 10.4305ZM27.8426 0.434937H30.3869V6.61399L33.2121 3.2436H36.0869L33.0139 6.92789L36.4338 12H33.493L31.2956 8.6957L30.3869 9.75307V12H27.8426V0.434937Z" fill="black"/>
<path d="M0.826076 17.2436H3.17213V18.4331C3.23822 18.29 3.33735 18.1358 3.46952 17.9705C3.61271 17.8053 3.77792 17.6511 3.96516 17.5079C4.15241 17.3648 4.36168 17.2491 4.59298 17.161C4.8353 17.0729 5.09413 17.0288 5.36949 17.0288C5.55674 17.0288 5.70543 17.0398 5.81557 17.0619C5.92572 17.0839 6.02485 17.1059 6.11296 17.1279V19.3253C6.05789 19.2923 5.93122 19.2537 5.73297 19.2097C5.53471 19.1656 5.30341 19.1436 5.03906 19.1436C4.4553 19.1436 4.03125 19.3143 3.76691 19.6557C3.50256 19.9972 3.37039 20.4102 3.37039 20.8949V26H0.826076V17.2436ZM9.16944 26.2148C8.69583 26.2148 8.27177 26.1432 7.89729 26C7.53381 25.8568 7.22541 25.6641 6.97208 25.4217C6.71875 25.1684 6.526 24.8765 6.39383 24.5461C6.26165 24.2047 6.19557 23.8357 6.19557 23.4392C6.19557 22.569 6.45991 21.9027 6.9886 21.4401C7.5283 20.9775 8.33786 20.7462 9.41726 20.7462H11.912V20.3827C11.912 19.854 11.7853 19.4905 11.532 19.2923C11.2787 19.083 10.9317 18.9784 10.4912 18.9784C10.0726 18.9784 9.76422 19.0444 9.56596 19.1766C9.3677 19.3088 9.25756 19.5181 9.23553 19.8044H6.69121C6.71324 19.4079 6.81237 19.0444 6.9886 18.714C7.16483 18.3726 7.41265 18.0807 7.73207 17.8384C8.0625 17.585 8.46452 17.3868 8.93814 17.2436C9.41176 17.1004 9.95697 17.0288 10.5738 17.0288C11.1465 17.0288 11.6697 17.0949 12.1433 17.2271C12.6279 17.3482 13.041 17.552 13.3824 17.8384C13.7239 18.1137 13.9882 18.4772 14.1755 18.9288C14.3627 19.3694 14.4563 19.9091 14.4563 20.5479V23.7696C14.4563 24.2322 14.4673 24.6397 14.4894 24.9922C14.5114 25.3336 14.5444 25.6696 14.5885 26H12.1764C12.1543 25.8128 12.1323 25.6475 12.1103 25.5044C12.0993 25.3612 12.0938 25.1849 12.0938 24.9757C11.8294 25.3281 11.4604 25.6255 10.9868 25.8678C10.5242 26.0991 9.91842 26.2148 9.16944 26.2148ZM9.99552 24.4305C10.5352 24.4305 10.9868 24.2763 11.3503 23.9679C11.7248 23.6595 11.912 23.2354 11.912 22.6957V22.3322H9.91291C9.53842 22.3322 9.25756 22.4314 9.07031 22.6296C8.89408 22.8279 8.80597 23.0592 8.80597 23.3235C8.80597 23.6429 8.89408 23.9073 9.07031 24.1165C9.25756 24.3258 9.56596 24.4305 9.99552 24.4305ZM18.8854 26.2148C18.3126 26.2148 17.795 26.1212 17.3324 25.9339C16.8698 25.7357 16.4732 25.4493 16.1428 25.0748C15.8124 24.7003 15.5591 24.2322 15.3828 23.6705C15.2066 23.1087 15.1185 22.4534 15.1185 21.7044V21.374C15.1185 19.9641 15.4434 18.8902 16.0932 18.1523C16.7541 17.4033 17.6848 17.0288 18.8854 17.0288C19.381 17.0288 19.8491 17.1445 20.2897 17.3758C20.7413 17.5961 21.1158 17.921 21.4132 18.3505V14.4349H23.9575V26H21.6114V24.8105C21.5013 24.9867 21.3581 25.1629 21.1819 25.3391C21.0167 25.5044 20.8184 25.653 20.5871 25.7852C20.3558 25.9174 20.097 26.022 19.8106 26.0991C19.5242 26.1762 19.2158 26.2148 18.8854 26.2148ZM19.4967 24.1165C20.0364 24.1165 20.488 23.9293 20.8514 23.5548C21.2259 23.1803 21.4132 22.6461 21.4132 21.9522V21.1262C21.4132 20.4653 21.2259 19.9696 20.8514 19.6392C20.488 19.2978 20.0364 19.127 19.4967 19.127C18.968 19.127 18.5384 19.3143 18.208 19.6888C17.8886 20.0523 17.7289 20.614 17.7289 21.374V21.7044C17.7289 22.4974 17.8941 23.0977 18.2245 23.5053C18.566 23.9128 18.99 24.1165 19.4967 24.1165ZM27.7613 26.2148C27.2877 26.2148 26.8636 26.1432 26.4892 26C26.1257 25.8568 25.8173 25.6641 25.564 25.4217C25.3106 25.1684 25.1179 24.8765 24.9857 24.5461C24.8535 24.2047 24.7874 23.8357 24.7874 23.4392C24.7874 22.569 25.0518 21.9027 25.5805 21.4401C26.1202 20.9775 26.9297 20.7462 28.0091 20.7462H30.5039V20.3827C30.5039 19.854 30.3772 19.4905 30.1239 19.2923C29.8706 19.083 29.5236 18.9784 29.083 18.9784C28.6645 18.9784 28.3561 19.0444 28.1578 19.1766C27.9596 19.3088 27.8494 19.5181 27.8274 19.8044H25.2831C25.3051 19.4079 25.4042 19.0444 25.5805 18.714C25.7567 18.3726 26.0045 18.0807 26.3239 17.8384C26.6544 17.585 27.0564 17.3868 27.53 17.2436C28.0036 17.1004 28.5488 17.0288 29.1656 17.0288C29.7384 17.0288 30.2616 17.0949 30.7352 17.2271C31.2198 17.3482 31.6329 17.552 31.9743 17.8384C32.3157 18.1137 32.5801 18.4772 32.7673 18.9288C32.9546 19.3694 33.0482 19.9091 33.0482 20.5479V23.7696C33.0482 24.2322 33.0592 24.6397 33.0812 24.9922C33.1033 25.3336 33.1363 25.6696 33.1804 26H30.7682C30.7462 25.8128 30.7242 25.6475 30.7021 25.5044C30.6911 25.3612 30.6856 25.1849 30.6856 24.9757C30.4213 25.3281 30.0523 25.6255 29.5787 25.8678C29.1161 26.0991 28.5103 26.2148 27.7613 26.2148ZM28.5874 24.4305C29.1271 24.4305 29.5787 24.2763 29.9422 23.9679C30.3166 23.6595 30.5039 23.2354 30.5039 22.6957V22.3322H28.5048C28.1303 22.3322 27.8494 22.4314 27.6622 22.6296C27.486 22.8279 27.3978 23.0592 27.3978 23.3235C27.3978 23.6429 27.486 23.9073 27.6622 24.1165C27.8494 24.3258 28.1578 24.4305 28.5874 24.4305ZM34.0408 17.2436H36.3868V18.4331C36.4529 18.29 36.552 18.1358 36.6842 17.9705C36.8274 17.8053 36.9926 17.6511 37.1799 17.5079C37.3671 17.3648 37.5764 17.2491 37.8077 17.161C38.05 17.0729 38.3088 17.0288 38.5842 17.0288C38.7714 17.0288 38.9201 17.0398 39.0303 17.0619C39.1404 17.0839 39.2395 17.1059 39.3277 17.1279V19.3253C39.2726 19.2923 39.1459 19.2537 38.9477 19.2097C38.7494 19.1656 38.5181 19.1436 38.2538 19.1436C37.67 19.1436 37.246 19.3143 36.9816 19.6557C36.7173 19.9972 36.5851 20.4102 36.5851 20.8949V26H34.0408V17.2436Z" fill="#6B6B6B"/>
</svg>
